<?xml version="1.0" encoding="UTF-8" standalone="no"?>
<!-- Created with Inkscape (http://www.inkscape.org/) -->

<svg
   version="1.1"
   id="svg1"
   width="4000"
   height="4000"
   viewBox="0 0 4000 4000"
   sodipodi:docname="liked.svg"
   inkscape:version="1.3.2 (091e20ef0f, 2023-11-25, custom)"
   xmlns:inkscape="http://www.inkscape.org/namespaces/inkscape"
   xmlns:sodipodi="http://sodipodi.sourceforge.net/DTD/sodipodi-0.dtd"
   xmlns="http://www.w3.org/2000/svg"
   xmlns:svg="http://www.w3.org/2000/svg">
  <defs
     id="defs1" />
  <sodipodi:namedview
     id="namedview1"
     pagecolor="#ffffff"
     bordercolor="#000000"
     borderopacity="0.25"
     inkscape:showpageshadow="2"
     inkscape:pageopacity="0.0"
     inkscape:pagecheckerboard="0"
     inkscape:deskcolor="#d1d1d1"
     inkscape:zoom="0.201"
     inkscape:cx="2000"
     inkscape:cy="2000"
     inkscape:window-width="1920"
     inkscape:window-height="1008"
     inkscape:window-x="0"
     inkscape:window-y="0"
     inkscape:window-maximized="1"
     inkscape:current-layer="g1">
    <inkscape:page
       x="0"
       y="0"
       inkscape:label="1"
       id="page1"
       width="4000"
       height="4000"
       margin="0"
       bleed="0" />
  </sodipodi:namedview>
  <g
     id="g1"
     inkscape:groupmode="layer"
     inkscape:label="1">
    <g
       id="group-R5">
      <path
         id="path2"
         d="m 20984.1,12790.5 c -11.7,91.6 -28.1,186 -50,288.6 -20.6,96.4 -44.8,193.8 -74,297.8 -26.8,95.4 -57.6,188.9 -91.3,277.9 -40.9,107.7 -77.7,196.6 -116,279.8 -38.8,84.5 -82.7,170.8 -138,271.7 -47.5,86.6 -99.3,171.2 -154.2,251.7 -64.4,94.5 -124.3,176.2 -183,249.8 -56.4,70.6 -117.8,141 -199,228.2 -64.8,69.5 -137.5,139.1 -221.9,212.5 -72.7,63.2 -152.1,126.4 -242.9,193.3 -75.7,55.8 -159,109.7 -262.1,169.7 -97.2,56.4 -187.3,102.9 -275.6,142 -85.8,37.9 -188.3,81.4 -297.8,116.1 -89.3,28.3 -194.1,60.4 -308.3,83.3 -95.6,19.1 -199,38.2 -307.9,48.1 -75.4,6.9 -175.4,14.8 -280.4,14.8 -9.9,0 -19.7,0 -29.5,-0.2 -90.4,-1.2 -195.8,-3.5 -303.9,-14.1 -101.3,-10.1 -200.8,-20.6 -304,-39.7 -96.2,-17.7 -194.5,-38.7 -292.1,-62.3 -108.7,-26.3 -209.5,-59.5 -298.5,-88.8 -99.9,-33 -193.6,-70.9 -279.9,-107.1 -88.2,-36.9 -176.7,-77.9 -262.8,-121.8 -79.1,-40.3 -171.4,-88 -264.8,-144.4 -92.8,-55.9 -174.8,-107.7 -250.7,-158.3 -80.7,-53.7 -157,-108.1 -226.7,-161.4 -82.2,-62.8 -162,-126.4 -237.3,-189 -10.7,-9 -21.4,-17.9 -31.9,-26.8 -29,24.7 -59.6,50.5 -92.4,77.7 -65.4,54.5 -137.9,110.7 -221.7,172 -72.5,53 -149.3,106.4 -241.7,168 -87.4,58.3 -174,108.9 -254.4,154.8 -90,51.4 -172.9,95.2 -253.5,133.8 -92.5,44.4 -183.7,87.3 -281.7,125.4 -97.3,37.8 -190,71.2 -283.4,102 -100.5,33 -199.5,58.2 -291.5,80.5 -88.6,21.4 -182.3,39.6 -294.8,57.1 -95.4,14.8 -196.5,26.1 -300.5,33.4 -100.2,7.1 -203.5,10 -306.6,8.6 -94,-1.2 -191.1,-8.2 -314.7,-22.8 -110.2,-13 -213.5,-35 -308.7,-56.8 -110,-25.1 -212,-58.8 -305.9,-91.4 -113.1,-39.2 -214.9,-85.8 -291,-122 -92.5,-44 -183.2,-93.4 -269.4,-146.7 -84.4,-52.2 -169.2,-109.9 -259.1,-176.1 -75.7,-55.8 -152.9,-120 -235.9,-196.2 -71,-65 -143.2,-137.1 -220.81,-220.3 -65.43,-70.3 -130.03,-147.4 -192.02,-229.2 -65.84,-87 -124.42,-170.3 -179.07,-254.9 -58.29,-90.2 -108.78,-180.1 -150.49,-256.2 -44.91,-81.9 -88.72,-172.1 -130.2,-268.1 -41.67,-96.3 -79.56,-192.6 -112.63,-286.1 -36.37,-102.8 -65.39,-196.7 -88.72,-287.1 -19.7,-76.3 -44.98,-177.8 -65.72,-286.1 -17.23,-89.9 -31.91,-183.8 -46.21,-295.2 -11.29,-87.9 -19.17,-183.3 -24.8,-300.1 -5.03,-104.4 -6.27,-199.7 -3.79,-291.6 2.7,-99.7 8.25,-201.4 16.49,-302.2 9.03,-110.5 24.69,-217 37.33,-297.4 14.1,-89.7 33.02,-184.8 57.84,-290.5 21.76,-92.7 47.8,-187 79.63,-288.3 28.19,-89.8 61.19,-182.2 100.86,-282.5 35.4,-89.5 74.82,-178.9 117.16,-265.7 50.06,-102.6 94.23,-186.9 139,-265.3 51.59,-90.4 102.35,-173.5 155.2,-254.3 52.25,-79.9 107.53,-159.2 169.02,-242.7 52.81,-71.6 109.95,-144.8 179.83,-230.2 53.6,-65.5 111.9,-133 188.8,-218.7 69.1,-77 137.7,-148.3 195.7,-207.8 60.6,-62.4 122.1,-122.9 182.8,-180 13.9,-13.1 27.7,-26.2 41.6,-39.4 51.9,-49.1 105.6,-99.9 162.8,-150.7 16,-14.1 31.9,-28.3 47.9,-42.6 51.2,-45.7 104.2,-93 160.3,-140.3 18.5,-15.5 36.8,-31.3 55.2,-47 46.6,-39.8 94.8,-81 146.9,-122.3 l 260.3,-206.7 c 17.1,-13.5 34.1,-27.2 51.1,-40.9 40.2,-32.4 81.8,-66 127,-100 l 242.6,-182.5 c 22.9,-17.2 45.8,-34.5 68.6,-51.7 46.3,-35 92.7,-69.9 139.2,-104.6 28.8,-21.5 57.8,-42.8 86.8,-64.2 l 824.1,-608.3 c 25.5,-18.8 52.1,-39.4 80.1,-61.2 12.8,-9.9 25.6,-19.9 38.5,-29.7 l 289.4,-222.7 c 47.1,-36.2 94,-74.1 143.8,-114.2 l 14.9,-12.1 c 67.9,-54.7 130.3,-106 190.8,-156.9 70.6,-59.3 129.6,-109.4 187.4,-160.4 l 17.8,-15.7 c 58.3,-51.4 113.3,-100 166.1,-149.3 l 37,-34.5 c 50.2,-46.8 97.7,-90.9 142,-135.1 l 32.8,-32.8 c 57.2,-56.9 111.2,-110.7 162.9,-165.1 40.2,-42.5 80.1,-86.1 122.2,-132.3 l 7.4,-8.1 c 91,-99.7 219.7,-156.5 354.6,-156.5 134.9,0 263.6,56.8 354.6,156.5 59.2,64.9 119.7,129.9 179.6,193 36.3,38.3 75.9,77.1 117.9,118.3 22.6,22.2 45.2,44.3 67.7,66.7 9.5,9.5 22.8,21.7 36.8,34.6 9,8.3 18,16.5 27,24.9 l 123.6,115.5 c 38.5,36 80.4,72.4 124.8,110.9 22.4,19.6 44.9,39.1 67.2,58.8 41.4,36.5 85.3,73 131.8,111.7 21,17.4 42,34.9 62.8,52.4 45.3,38 92.2,75.6 141.9,115.5 18.2,14.6 36.4,29.2 54.6,43.8 43.7,35.3 89.1,70.2 137.1,107.1 l 300.4,231.1 c 23.7,18.2 54.9,42.2 86.4,65.3 l 828.4,611.6 c 24.4,18 48.9,36 73.1,54.2 l 265.2,199.6 c 18.1,13.6 36.3,27 54.5,40.5 42.4,31.4 86.3,63.9 131.5,99.7 l 233.2,185.1 c 21.2,16.8 42.6,33.5 64.1,50.2 48.1,37.4 97.8,76.1 148.8,119 l 210.4,177.4 c 52.4,44.1 101.1,88.1 148.2,130.6 21.4,19.2 42.7,38.5 64.2,57.5 51.9,46.1 99.4,91.7 145.4,135.8 20.2,19.4 40.5,38.9 60.9,58.1 59.5,56 113.5,111.8 165.8,165.8 11.4,11.8 22.8,23.6 34.3,35.4 61.9,63.6 118.7,127 173.7,188.4 l 18.9,21 c 59.3,66 112.7,131.4 164.4,194.7 l 19.9,24.4 c 55.8,68.2 105.1,135.3 152.8,200.2 l 20.5,27.8 c 51.8,70.3 96.5,139 139.8,205.3 l 20.8,31.9 c 29,44.3 56.7,89.5 82.4,134.5 6.2,10.9 12.6,21.8 18.9,32.7 16.1,27.4 34.3,58.5 52.4,92.9 l 17.9,33.5 c 38,71.4 77.3,145.2 114.2,227.8 l 0.6,1.4 c 38.8,86.9 78.9,176.8 115.5,274.4 38.9,103.8 70.2,196.4 95.8,283.3 31.1,105.8 55.6,200.5 74.7,289.3 24.3,113 41.2,206 53.2,292.9 13.2,96.1 23.8,192.9 32.2,296.1 9,109.4 11,214.4 11.8,302.5 0.9,99.1 -1.9,196.9 -8.3,290.6 -6.6,97.6 -16.5,196.8 -30.2,303.4"
         style="fill:#100f0d;fill-opacity:1;fill-rule:nonzero;stroke:none"
         transform="matrix(0.13333333,0,0,-0.13333333,0,4000)" />
      <path
         id="path3"
         d="m 26519.6,10575.3 c -0.9,-93.7 -2.8,-190.7 -5.7,-288.2 -2.5,-85 -5.6,-152.9 -10,-213.6 -6.8,-96.2 -13.1,-183 -21.3,-270.4 -7.6,-80.8 -17.1,-161.8 -27.2,-247.6 l -1.1,-9.7 c -8.9,-76 -22.2,-156.4 -33.9,-225.8 -15.3,-90.4 -32.9,-181.3 -49.6,-266.1 -13.9,-70.8 -33.1,-146.3 -51.6,-217.4 -20.3,-78 -40.4,-153.9 -63.6,-225.6 -30.8,-95.3 -55.6,-166.5 -80.4,-230.7 -25.3,-65.5 -55.6,-136.6 -92.6,-217.3 -25.4,-55.5 -57.3,-115.8 -103.4,-195.7 -31,-53.6 -69.1,-111.1 -116.6,-176 -39.5,-54 -78.3,-100 -115.4,-136.7 -41.2,-40.9 -78,-74 -113.4,-102 v 6126.1 c 11.3,-8.8 22.9,-18.1 34.7,-28.1 39.2,-33.1 81.4,-75.7 136.8,-138.5 37.3,-42.2 74.4,-91.6 110.2,-146.9 37,-56.8 79.2,-123.7 112.4,-188.3 38.8,-75.4 72.1,-145.4 101.8,-213.8 30.6,-70.8 57.3,-139.1 79.3,-203.1 25.4,-74.1 51,-155.1 78.4,-247.9 21.1,-71.5 38.3,-137.1 52.8,-200.8 20.8,-91.3 40.7,-185.2 59.1,-278.9 12.9,-65.6 24.5,-134.1 34.4,-203.7 14.2,-99.8 26.3,-192.8 37.1,-284.3 9.7,-82.8 16.3,-150.3 20.7,-212.5 6.6,-92.5 12.9,-182.7 17.3,-270.4 4.2,-84.4 6.6,-168.9 9.2,-258.3 l 0.3,-7.6 c 2.3,-78.3 1.9,-158.8 1.3,-220.2 z M 24588.1,6538 c -48.4,-102.6 -118,-198.1 -201.4,-276 -83.6,-78.2 -183.8,-141.2 -289.6,-182.4 -109.6,-42.7 -230.6,-63.8 -350.2,-60.9 -118.1,2.9 -237,29.4 -343.9,76.9 -103.8,46 -200.8,113.5 -280.7,195.1 -79.9,81.8 -145.2,180.4 -188.8,285.2 -45.1,108.3 -68.9,228.3 -68.9,347.2 v 7384.6 c 0,14.8 0.4,29.7 1.1,44.4 5.6,117.4 34.9,235.2 84.6,340.7 48.4,102.6 118.1,198.1 201.5,276 83.6,78.1 183.7,141.2 289.5,182.4 109.7,42.7 230.8,63.8 350.2,60.8 118.1,-2.8 237.1,-29.3 344,-76.8 103.7,-46 200.8,-113.5 280.6,-195.2 80,-81.7 145.3,-180.3 188.9,-285.1 45,-108.3 68.8,-228.4 68.8,-347.2 v -0.1 c 0,-0.2 0,-0.5 0,-0.7 V 6924.1 c 0,-0.4 0,-0.8 0,-1.1 0,-14.7 -0.3,-29.7 -1,-44.3 -5.6,-117.4 -34.9,-235.2 -84.7,-340.7 z M 7135.39,14307.7 V 6923.1 c 0,-14.8 -0.36,-29.8 -1.06,-44.4 -5.63,-117.4 -34.9,-235.2 -84.65,-340.7 -48.39,-102.7 -118.06,-198.1 -201.46,-276 -83.6,-78.2 -183.72,-141.2 -289.58,-182.4 -109.63,-42.7 -230.72,-63.8 -350.2,-60.9 -118.08,2.9 -237,29.4 -343.93,76.9 -103.74,46 -200.78,113.5 -280.64,195.2 -79.91,81.7 -145.22,180.3 -188.84,285.1 -45.06,108.3 -68.88,228.3 -68.88,347.2 0,0.3 0,0.6 0,0.8 v 7382.8 c 0,0.4 0,0.7 0,1 0,14.8 0.36,29.8 1.06,44.4 5.63,117.4 34.9,235.2 84.65,340.7 48.39,102.6 118.06,198.1 201.46,276 83.59,78.1 183.72,141.2 289.57,182.4 109.65,42.7 230.9,63.7 350.19,60.8 118.11,-2.8 237.05,-29.3 343.93,-76.8 103.76,-46 200.81,-113.5 280.66,-195.2 m -2682.9,-1427.9 c 55.35,62.6 97.52,105.3 136.69,138.3 11.85,10 23.4,19.4 34.69,28.2 V 7552.5 c -35.32,28 -72.09,61.1 -113.33,101.9 -37.11,36.8 -75.94,82.8 -115.44,136.8 -47.49,64.9 -85.61,122.5 -116.54,176 -46.11,79.9 -78.02,140.2 -103.47,195.7 -37.04,80.8 -67.33,151.8 -92.61,217.3 -24.8,64.3 -49.59,135.4 -80.38,230.6 -23.27,72.1 -44.15,151 -63.55,225.6 -18.47,71.2 -37.68,146.5 -51.66,217.5 -16.74,84.9 -34.33,176 -49.55,266.1 -11.73,69.5 -25,150 -33.89,225.8 l -1.27,10.8 c -10.02,85.4 -19.49,166 -27.03,246.5 -8.19,87.4 -14.52,174.2 -21.38,270.3 -4.33,60.9 -7.5,128.8 -9.98,213.6 -2.86,97.8 -4.77,194.8 -5.66,288.3 -0.59,61.4 -0.97,141.9 1.32,220.2 l 0.21,7 c 2.62,89.6 5.09,174.3 9.31,258.9 4.35,87.4 10.38,174.2 17.24,270.5 4.42,62.1 11,129.6 20.72,212.4 10.74,91.5 22.87,184.5 37.07,284.3 9.91,69.6 21.48,138.1 34.39,203.7 18.47,93.7 38.36,187.5 59.13,279 14.43,63.4 31.7,129.1 52.83,200.7 27.34,92.7 52.99,173.8 78.42,248 21.94,63.9 48.62,132.2 79.3,203 29.65,68.4 62.94,138.4 101.75,213.8 m 23505.8,-2353.2 -0.3,7.6 c -2.6,90.3 -5.3,183.7 -10,277.9 -4.9,97.2 -11.5,193.1 -18.5,290.9 -5.5,77.1 -13.4,158.5 -24.9,256.2 -11.6,99.4 -24.7,200 -40.1,307.6 -12.2,86.4 -26.7,171.9 -42.9,254.1 -20.2,102.8 -42.1,205.8 -64.9,306 -19,83.6 -41.3,168.6 -68.1,259.7 -31.4,106.3 -61.2,200.5 -91.2,288 -30.1,87.5 -65.9,179.4 -106.5,273 -38.1,88.2 -80.3,176.9 -128.9,271.4 -52.8,102.4 -110.9,194.9 -160.8,271.8 -61.5,94.8 -127.5,182.2 -196.1,259.8 -59,66.9 -139.3,154.2 -237.5,236.9 -97.7,82.4 -192.4,148.4 -289.5,201.9 -108.1,59.6 -221.9,107.3 -338.1,141.9 -25.8,7.7 -51.9,14.5 -78.4,20.8 -22.7,93.3 -52.6,185.1 -89.9,274.6 -91.3,219.4 -222.1,417 -388.8,587.5 -166.4,170.2 -360.8,305.3 -577.8,401.6 -92.6,41.1 -187.8,74.2 -284.9,99.5 -2.6,57.4 -5.6,114.6 -9.2,171.6 -12.2,193.8 -30.8,389.6 -55.2,582 -24.1,190.6 -54.6,382.7 -90.6,571.1 -35.7,187 -77.7,375.1 -124.9,559.2 -46.9,182.7 -100.1,366.4 -158.1,545.8 -57.7,178.2 -121.7,357 -190.2,531.4 -68.1,173.3 -142.5,346.9 -221.1,515.8 -78.2,168.1 -162.6,336.1 -250.8,499.2 -87.9,162.3 -181.9,324.2 -279.5,481.2 -97.2,156.4 -200.5,311.9 -307,462.3 -106.2,150 -218.4,298.7 -333.4,442.2 -114.9,143.2 -235.5,284.9 -358.7,421 -123,136 -251.8,270.2 -382.8,398.7 -130.9,128.5 -267.5,254.8 -405.8,375.3 -138.4,120.6 -282.4,238.6 -427.8,350.8 -145.7,112.4 -296.6,221.8 -448.6,325.2 -152.6,103.8 -310.1,204.2 -468.4,298.5 -158.9,94.6 -322.7,185.7 -487,270.6 -165,85.2 -334.8,166.5 -504.5,241.6 -170.8,75.4 -346,146.6 -520.9,211.4 -176,65.3 -356.4,125.9 -536.1,180.2 -180.9,54.7 -366,104.4 -550.1,147.8 -185.5,43.7 -374.9,82.1 -563,114.2 -189.7,32.4 -383.1,59.2 -574.8,79.6 -193.4,20.6 -390.3,35.4 -585.1,43.8 -196.6,8.5 -396.3,10.8 -593.5,6.9 -196,-3.9 -394.1,-14.1 -588.7,-30.3 -193,-16 -387.7,-38.4 -578.7,-66.4 -189.5,-27.8 -380.4,-62 -567.5,-101.6 -185.6,-39.2 -372.4,-84.8 -555.1,-135.5 -181.3,-50.2 -363.4,-106.9 -541.4,-168.3 -176.8,-61 -354,-128.3 -526.6,-200 -171.7,-71.3 -343.6,-148.9 -510.7,-230.6 -166.3,-81.3 -332.4,-168.7 -493.6,-260 -160.6,-90.9 -320.5,-187.9 -475.4,-288.3 -154.42,-100.1 -307.86,-206.2 -456.06,-315.4 -147.85,-108.9 -294.42,-223.8 -435.63,-341.5 -140.93,-117.4 -280.26,-240.6 -414.12,-366.4 -133.7,-125.5 -265.41,-256.8 -391.45,-390.1 -126.06,-133.4 -249.78,-272.3 -367.73,-412.9 -118.07,-140.8 -233.43,-287 -342.85,-434.5 -109.7,-147.9 -216.33,-301 -316.89,-455 -100.9,-154.5 -198.4,-314.1 -289.81,-474.3 -91.77,-160.9 -179.78,-326.7 -261.58,-492.7 -82.2,-166.8 -160.33,-338.3 -232.22,-509.7 -72.29,-172.4 -140.18,-349.3 -201.75,-525.8 -61.99,-177.7 -119.22,-359.6 -170.11,-540.7 -51.27,-182.5 -97.49,-369 -137.34,-554.3 -40.18,-186.9 -74.99,-377.7 -103.43,-566.9 -28.71,-190.9 -51.73,-385.4 -68.41,-578.1 -11.13,-128.4 -19.58,-258.3 -25.4,-388.1 -69.46,-18.1 -138.03,-40.2 -205.49,-66.5 -221.66,-86.2 -422.48,-212.6 -596.88,-375.6 -173.76,-162.4 -313.16,-353.5 -414.3,-567.9 -53.75,-114 -95.35,-232.1 -124.78,-353.3 -26.44,-6.2 -52.6,-13 -78.33,-20.7 -116.26,-34.6 -230.02,-82.3 -338.1,-141.9 -97.12,-53.5 -191.84,-119.5 -289.61,-201.9 -98.1,-82.7 -178.43,-170 -237.46,-236.9 -68.58,-77.6 -134.55,-165 -196.07,-259.8 -49.91,-76.9 -108.05,-169.4 -160.74,-271.8 -48.62,-94.5 -90.81,-183.2 -128.99,-271.3 -40.59,-93.7 -76.4,-185.6 -106.44,-273.1 -30.03,-87.5 -59.86,-181.7 -91.2,-288 -26.91,-91.3 -49.21,-176.2 -68.17,-259.6 -22.8,-100.4 -44.63,-203.4 -64.88,-306.1 -16.19,-82.2 -30.63,-167.7 -42.92,-254.1 -15.32,-107.6 -28.44,-208.2 -40.1,-307.6 -11.47,-97.7 -19.37,-179.1 -24.85,-256.1 -6.99,-98.1 -13.66,-194.2 -18.47,-290.9 -4.71,-94.5 -7.44,-188.1 -10.09,-278.6 l -0.21,-7 c -2.77,-94.8 -2.36,-187.4 -1.69,-257.5 0.96,-99.8 2.99,-203.2 6.03,-307.1 2.88,-98.5 6.69,-179.1 12,-253.7 7,-98.3 14.03,-194.6 23.13,-291.7 8.59,-91.7 19.17,-181.8 29.4,-269 l 1.27,-10.7 c 11.49,-98 27.06,-192.7 40.74,-273.7 17.14,-101.5 36.2,-200.3 54.26,-291.9 19.09,-96.9 42.28,-188.1 64.39,-273.2 22.96,-88.4 48,-182.8 79.24,-279.5 36.48,-112.9 66.79,-199.6 98.25,-281.1 32.45,-84.1 70.28,-173 115.65,-271.9 38.4,-83.7 83.01,-168.6 144.65,-275.4 48.4,-83.8 105.05,-169.8 173.19,-263 69.33,-94.7 141.5,-179.4 214.52,-251.8 89.22,-88.3 174.31,-161.4 260.12,-223.3 93.03,-67 197.2,-126.5 309.64,-176.6 83.74,-37.3 174.88,-67.5 271.73,-90.1 22.73,-93.6 52.7,-185.6 90.06,-275.3 91.28,-219.4 222.07,-417 388.72,-587.5 166.45,-170.2 360.86,-305.4 577.8,-401.6 224.55,-99.6 463.51,-153.1 710.22,-159 15.35,-0.4 30.65,-0.5 45.95,-0.5 232.59,0 459.59,42.4 675.38,126.4 221.66,86.3 422.49,212.7 596.9,375.7 173.77,162.3 313.16,353.4 414.3,567.9 104.51,221.7 163.46,458.6 175.24,704.2 1.43,30 2.16,60.4 2.16,90.4 v 7384.6 c 0,247.8 -47.96,488.7 -142.57,716 -91.29,219.4 -222.07,417 -388.72,587.5 -166.44,170.2 -360.84,305.3 -577.81,401.6 -86.34,38.3 -174.84,69.7 -265.08,94.3 5.12,103.9 11.92,207.7 20.82,310.5 14.96,172.7 35.6,347.1 61.32,518.2 25.49,169.5 56.66,340.3 92.67,507.8 35.68,166 77.06,333 122.98,496.4 45.57,162.2 96.82,325 152.32,484.1 55.14,158.1 115.92,316.5 180.66,470.9 64.4,153.5 134.38,307.2 208.01,456.6 73.28,148.7 152.13,297.2 234.36,441.3 81.9,143.6 169.29,286.7 259.73,425.2 90.15,138 185.73,275.2 284.08,407.8 98.11,132.3 201.55,263.3 307.42,389.6 105.77,126.1 216.71,250.7 329.77,370.3 113.04,119.5 231.15,237.3 351.05,349.9 120.05,112.7 244.99,223.2 371.37,328.5 126.62,105.5 258.05,208.5 390.63,306.2 132.8,97.9 270.4,193 408.8,282.8 138.8,90 282.2,176.9 426.1,258.3 144.4,81.8 293.2,160.2 442.2,233 149.7,73.1 303.6,142.6 457.4,206.5 154.6,64.2 313.3,124.5 471.6,179.1 159.3,55 322.4,105.7 484.8,150.8 163.6,45.3 330.8,86.2 497.1,121.3 167.5,35.4 338.6,66 508.4,91 171.2,25.1 345.7,45.2 518.7,59.5 174.6,14.6 352.4,23.7 528.3,27.2 177.1,3.5 356.4,1.4 532.9,-6.2 174.8,-7.6 351.4,-20.8 524.9,-39.3 171.7,-18.3 345,-42.3 515,-71.3 168.5,-28.7 338.2,-63.2 504.3,-102.3 164.9,-38.9 330.6,-83.4 492.7,-132.4 160.8,-48.6 322.3,-102.8 480,-161.3 156.6,-58.1 313.5,-121.8 466.5,-189.4 152,-67.2 304,-140 451.9,-216.4 147.2,-76.1 294,-157.6 436.3,-242.5 141.9,-84.5 283.1,-174.5 419.8,-267.5 136.3,-92.7 271.6,-190.7 402.2,-291.5 130.4,-100.6 259.5,-206.4 383.6,-314.6 124.1,-108 246.5,-221.3 364,-336.6 117.4,-115.2 232.9,-235.5 343.3,-357.5 110.4,-122.1 218.6,-249.1 321.6,-377.6 103.1,-128.6 203.7,-262 298.9,-396.4 95.5,-134.8 188.1,-274.2 275.2,-414.4 87.5,-140.7 171.8,-285.8 250.5,-431.2 79.1,-146.2 154.7,-296.6 224.7,-447.1 70.4,-151.4 137,-306.8 198,-462.1 61.4,-156.1 118.7,-316.2 170.3,-475.8 52,-160.7 99.6,-325.1 141.6,-488.8 42.2,-164.8 79.9,-333.3 111.9,-500.7 32.2,-168.8 59.5,-341 81.1,-511.7 21.9,-172.5 38.5,-348.1 49.5,-521.9 2.5,-38.7 4.5,-77.5 6.4,-116.4 -62.7,-17.1 -124.7,-37.4 -185.7,-61.2 -221.7,-86.2 -422.5,-212.6 -596.9,-375.6 -173.8,-162.4 -313.2,-353.5 -414.3,-567.9 -104.5,-221.7 -163.4,-458.6 -175.2,-704.2 -1.5,-30 -2.2,-60.4 -2.2,-90.4 V 6923.1 c 0,-247.8 48,-488.7 142.6,-716 91.3,-219.4 222,-417 388.7,-587.5 166.5,-170.2 360.9,-305.4 577.8,-401.6 224.5,-99.6 463.5,-153.1 710.2,-159 15.4,-0.4 30.7,-0.5 46,-0.5 232.6,0 459.6,42.4 675.3,126.4 221.7,86.3 422.5,212.6 597,375.7 173.7,162.4 313.1,353.5 414.2,567.9 53.9,114.2 95.5,232.5 125,353.9 96.8,22.7 187.9,52.8 271.7,90.1 112.4,50.1 216.6,109.6 309.6,176.6 85.8,61.9 170.9,134.9 260.2,223.4 73,72.3 145.1,157 214.4,251.7 68.2,93.1 124.8,179.2 173.2,263 61.6,106.7 106.3,191.6 144.7,275.4 45.3,98.8 83.1,187.7 115.6,271.9 31.5,81.5 61.8,168.1 98.3,281 31.1,96.3 56.2,190.9 79.2,279.6 22.2,85.3 45.4,176.6 64.4,273.2 18.1,91.5 37.1,190.2 54.3,291.8 13.6,81 29.2,175.6 40.7,273.7 l 1.2,9.7 c 10.2,87.5 20.9,178 29.5,270.1 9.1,97.1 16.1,193.4 23.1,291.7 5.3,74.4 9.1,154.9 12,253.7 3.1,103.8 5.1,207.1 6.1,307.1 0.6,70.1 1,162.6 -1.7,257.5"
         style="fill:#100f0d;fill-opacity:1;fill-rule:nonzero;stroke:none"
         transform="matrix(0.13333333,0,0,-0.13333333,0,4000)" />
    </g>
  </g>
</svg>
